<svg id="Layer_1" data-name="Layer 1" xmlns="http://www.w3.org/2000/svg" viewBox="0 0 163 163"><defs><style>.cls-1{fill:#fcfbd0;}.cls-2{fill:#1d8953;}</style></defs><title>React_Kyiv__Sybol__rounded</title><circle class="cls-1" cx="81.36" cy="81.19" r="81.5"/><path class="cls-2" d="M125.63,59.69q-2.14-.74-4.42-1.39.37-1.53.68-3C125.24,39,123,25.93,115.57,21.62c-7.17-4.13-18.89.18-30.73,10.48q-1.71,1.49-3.42,3.14-1.14-1.09-2.28-2.1C66.74,22.12,54.3,17.48,46.83,21.8c-7.16,4.15-9.28,16.45-6.27,31.86q.44,2.23,1,4.55c-1.76.5-3.46,1-5.09,1.6-14.55,5.07-23.84,13-23.84,21.27,0,8.52,10,17.06,25.13,22.24q1.79.61,3.72,1.16-.62,2.51-1.08,4.9c-2.87,15.14-.63,27.15,6.51,31.27,7.38,4.25,19.76-.12,31.81-10.66q1.43-1.25,2.87-2.64,1.86,1.79,3.71,3.39c11.68,10,23.21,14.11,30.35,10,7.37-4.27,9.76-17.18,6.66-32.88q-.36-1.8-.82-3.67,1.3-.39,2.56-.8c15.75-5.22,26-13.66,26-22.29C150.06,72.8,140.47,64.8,125.63,59.69ZM88.7,36.53c10.14-8.83,19.62-12.31,23.94-9.82,4.6,2.65,6.39,13.35,3.5,27.39q-.28,1.34-.62,2.73a140.61,140.61,0,0,0-18.37-2.9,137.89,137.89,0,0,0-11.62-14.5Q87.12,37.9,88.7,36.53ZM56.34,81.21c1.77-3.7,3.73-7.41,5.84-11.08h0c2.12-3.68,4.36-7.23,6.66-10.61,4.09-.31,8.28-.47,12.51-.47h0c4.25,0,8.45.16,12.53.47,2.27,3.35,4.49,6.89,6.62,10.57s4.13,7.41,5.92,11c-1.78,3.68-3.76,7.4-5.9,11.12s-4.35,7.28-6.59,10.64c-4.08.29-8.29.44-12.58.44s-8.44-.13-12.44-.39c-2.33-3.4-4.58-7-6.72-10.65h0C60.07,88.61,58.11,84.9,56.34,81.21Zm-3.11,6.9q1.84,3.56,3.9,7.11h0q2.09,3.61,4.31,7.06a124.94,124.94,0,0,1-12.66-2C50,96.33,51.48,92.26,53.23,88.11Zm0-13.81c-1.71-4.05-3.17-8-4.37-11.89,3.92-.88,8.1-1.59,12.46-2.14q-2.16,3.38-4.21,6.92h0Q55.06,70.74,53.22,74.31Zm52.4,20.87q2.1-3.64,4-7.28A124.53,124.53,0,0,1,114.22,100a124.71,124.71,0,0,1-12.82,2.18Q103.54,98.79,105.62,95.18Zm3.93-20.87q-1.87-3.55-4-7.15t-4.18-6.87c4.38.55,8.58,1.29,12.53,2.19A125.38,125.38,0,0,1,109.55,74.31ZM81.42,43.62a125.48,125.48,0,0,1,8.09,9.76q-4-.19-8.15-.19t-8.09.19C75.94,49.86,78.67,46.59,81.42,43.62ZM49.77,26.88c4.6-2.66,14.76,1.13,25.47,10.65q1,.91,2.06,1.9A140.61,140.61,0,0,0,65.6,53.91a143.46,143.46,0,0,0-18.34,2.85q-.54-2.16-.94-4.23C43.74,39.33,45.46,29.38,49.77,26.88Zm-6.7,71.94q-1.75-.5-3.39-1.06c-6.7-2.29-12.23-5.27-16-8.51-3.41-2.92-5.13-5.82-5.13-8.17,0-5,7.46-11.38,19.9-15.72,1.51-.53,3.09-1,4.73-1.49a140.7,140.7,0,0,0,6.7,17.35A143,143,0,0,0,43.07,98.81Zm31.81,26.76c-5.33,4.66-10.67,8-15.38,9.63-4.23,1.49-7.6,1.54-9.64.36-4.33-2.5-6.14-12.15-3.68-25.09q.42-2.22,1-4.56a138,138,0,0,0,18.52,2.68,142.89,142.89,0,0,0,11.8,14.57Q76.18,124.43,74.88,125.57Zm6.7-6.63c-2.78-3-5.56-6.32-8.27-9.89q3.95.15,8,.16t8.29-.18A124.86,124.86,0,0,1,81.59,118.94Zm35.64,8.17c-.82,4.41-2.46,7.35-4.5,8.53-4.33,2.51-13.59-.75-23.58-9.35q-1.72-1.48-3.45-3.15a137.9,137.9,0,0,0,11.52-14.62,137,137,0,0,0,18.61-2.87q.42,1.7.74,3.32C117.94,115.91,118.14,122.19,117.23,127.1Zm5-29.32q-1.13.37-2.31.72a137.68,137.68,0,0,0-7-17.41,137.65,137.65,0,0,0,6.69-17.15q2.11.61,4.08,1.29c12.71,4.38,20.47,10.85,20.47,15.84C144.19,86.38,135.81,93.28,122.21,97.79Z"/><polygon class="cls-2" points="80.97 64.15 74.45 70.45 80.97 83.79 87.48 70.45 80.97 64.15"/><path class="cls-2" d="M81,86.74,72.87,70.18,81,62.35l8.09,7.83ZM76,70.73,81,80.84l4.94-10.11L81,66Z"/><polygon class="cls-2" points="96.9 77.87 91.53 74.8 80.97 83.79 70.4 74.8 65.04 77.87 68.06 84.81 80.24 84.81 70.83 89.03 70.83 94.52 76.5 94.27 80.97 84.81 85.44 94.27 91.11 94.52 91.11 89.03 81.69 84.81 93.87 84.81 96.9 77.87"/><path class="cls-2" d="M92.4,95.88l-7.8-.35L81,87.84l-3.63,7.69-7.8.35V88.19l4.65-2.08h-7l-3.83-8.79,7.17-4.09L80.86,82l.1-.22.1.22,10.31-8.77,7.17,4.09-3.83,8.79h-7l4.65,2.08ZM86.28,93l3.53.16v-3.3L83.44,87ZM72.13,89.87v3.3L75.66,93l2.83-6ZM86.3,83.51H93l2.22-5.1-3.57-2-8.39,7.14Zm-17.39,0h9.74l-8.39-7.14-3.57,2Z"/><rect class="cls-2" x="80.11" y="84.81" width="1.71" height="15.08"/></svg>