<svg id="Layer_1" data-name="Layer 1" xmlns="http://www.w3.org/2000/svg" viewBox="0 0 163 163"><defs><style>.cls-1{fill:#fcfbd0;}.cls-2{fill:#1d8953;}</style></defs><title>React_Kyiv__Symbol__with_bg</title><rect class="cls-1" x="0.08" y="0.2" width="163" height="163"/><path class="cls-2" d="M129.49,58.43q-2.31-.8-4.79-1.51.41-1.66.74-3.26c3.62-17.59,1.25-31.76-6.84-36.42-7.76-4.47-20.44.19-33.26,11.34q-1.85,1.61-3.7,3.4-1.23-1.18-2.46-2.28c-13.43-11.92-26.89-16.95-35-12.27-7.75,4.49-10,17.81-6.78,34.48q.47,2.42,1.1,4.93c-1.9.54-3.74,1.12-5.5,1.73-15.74,5.49-25.8,14.09-25.8,23C7.23,90.79,18,100,34.42,105.64q1.94.66,4,1.26-.67,2.71-1.17,5.31c-3.11,16.38-.68,29.39,7,33.84,8,4.6,21.38-.13,34.43-11.53q1.55-1.35,3.1-2.86,2,1.94,4,3.67c12.64,10.87,25.12,15.27,32.84,10.8,8-4.62,10.57-18.59,7.2-35.59q-.39-1.95-.89-4,1.41-.42,2.77-.86c17-5.65,28.14-14.78,28.14-24.12C155.92,72.62,145.55,64,129.49,58.43Zm-40-25.06c11-9.55,21.24-13.33,25.91-10.63,5,2.87,6.92,14.45,3.79,29.64q-.3,1.45-.67,3a152.17,152.17,0,0,0-19.88-3.14A149.22,149.22,0,0,0,86.1,36.5Q87.81,34.86,89.52,33.37Zm-35,48.36c1.92-4,4-8,6.33-12h0c2.3-4,4.71-7.82,7.21-11.48,4.42-.33,9-.51,13.54-.51h0c4.6,0,9.14.18,13.56.51,2.46,3.63,4.86,7.46,7.16,11.44s4.47,8,6.41,11.93c-1.93,4-4.07,8-6.39,12s-4.71,7.88-7.13,11.51c-4.41.32-9,.48-13.62.48s-9.13-.14-13.46-.43c-2.52-3.68-5-7.54-7.27-11.53h0C58.54,89.73,56.42,85.72,54.5,81.73ZM51.13,89.2q2,3.86,4.22,7.69h0q2.26,3.9,4.67,7.64a135.21,135.21,0,0,1-13.7-2.2C47.63,98.08,49.24,93.68,51.13,89.2Zm0-14.94c-1.85-4.39-3.43-8.7-4.72-12.87,4.24-.95,8.77-1.73,13.48-2.31q-2.34,3.65-4.56,7.49h0Q53.12,70.39,51.13,74.26Zm56.7,22.59q2.27-3.94,4.31-7.88a134.76,134.76,0,0,1,5,13.08,135,135,0,0,1-13.87,2.36Q105.58,100.74,107.83,96.85Zm4.25-22.59q-2-3.84-4.28-7.74t-4.52-7.44c4.74.6,9.29,1.4,13.56,2.37A135.68,135.68,0,0,1,112.08,74.26ZM81.65,41A135.79,135.79,0,0,1,90.4,51.61Q86,51.4,81.58,51.4t-8.75.2C75.71,47.8,78.67,44.26,81.65,41ZM47.39,22.93c5-2.88,16,1.23,27.57,11.52q1.11,1,2.23,2.06A152.17,152.17,0,0,0,64.53,52.18a155.25,155.25,0,0,0-19.84,3.08q-.58-2.33-1-4.58C40.87,36.4,42.72,25.63,47.39,22.93Zm-7.25,77.85q-1.9-.55-3.67-1.15c-7.25-2.48-13.24-5.7-17.34-9.21-3.69-3.16-5.55-6.29-5.55-8.84,0-5.41,8.07-12.32,21.54-17,1.63-.57,3.34-1.11,5.12-1.61a152.26,152.26,0,0,0,7.25,18.78A154.76,154.76,0,0,0,40.14,100.78Zm34.42,29c-5.77,5-11.55,8.62-16.65,10.42-4.58,1.62-8.22,1.66-10.43.39-4.69-2.71-6.64-13.15-4-27.16Q44,111,44.6,108.45a149.39,149.39,0,0,0,20,2.9A154.64,154.64,0,0,0,77.4,127.12Q76,128.49,74.57,129.73Zm7.26-7.18c-3-3.25-6-6.84-8.95-10.71q4.27.17,8.7.17t9-.2A135.12,135.12,0,0,1,81.82,122.55Zm38.57,8.84c-.89,4.77-2.67,8-4.87,9.23-4.69,2.71-14.71-.81-25.51-10.11q-1.86-1.6-3.74-3.41a149.23,149.23,0,0,0,12.46-15.83,148.27,148.27,0,0,0,20.14-3.1q.45,1.84.8,3.6C121.17,119.28,121.38,126.08,120.4,131.39Zm5.39-31.73q-1.22.4-2.5.78a149,149,0,0,0-7.53-18.84A149,149,0,0,0,123,63q2.28.66,4.42,1.39c13.76,4.74,22.15,11.74,22.15,17.14C149.57,87.32,140.51,94.78,125.79,99.66Z"/><polygon class="cls-2" points="81.15 63.26 74.1 70.08 81.15 84.51 88.21 70.08 81.15 63.26"/><path class="cls-2" d="M81.15,87.71,72.39,69.79l8.76-8.47,8.76,8.47ZM75.81,70.38l5.35,10.94L86.5,70.38l-5.35-5.17Z"/><polygon class="cls-2" points="98.39 78.11 92.59 74.79 81.15 84.51 69.72 74.79 63.91 78.11 67.19 85.62 80.37 85.62 70.18 90.18 70.18 96.13 76.31 95.85 81.15 85.62 85.99 95.85 92.13 96.13 92.13 90.18 81.94 85.62 95.12 85.62 98.39 78.11"/><path class="cls-2" d="M93.53,97.6l-8.44-.38L81.15,88.9l-3.93,8.32-8.44.38V89.27l5-2.25H66.27l-4.14-9.51,7.75-4.43L81,82.58l.11-.24.11.24,11.16-9.5,7.75,4.43L96,87H88.5l5,2.25ZM86.9,94.49l3.82.17V91.09L83.83,88Zm-15.32-3.4v3.57l3.82-.17L78.48,88Zm15.34-6.87H94.2l2.4-5.52-3.86-2.21-9.08,7.73Zm-18.82,0H78.64l-9.08-7.73L65.7,78.7Z"/><rect class="cls-2" x="80.23" y="85.62" width="1.85" height="16.32"/></svg>