<svg id="Layer_1" data-name="Layer 1" xmlns="http://www.w3.org/2000/svg" viewBox="0 0 163 163"><defs><style>.cls-1{fill:#fcfbd0;}.cls-2{fill:#1d8953;}.cls-3{fill:#4c3e36;}</style></defs><title>React_Kyiv__Logo__rounded</title><circle class="cls-1" cx="81.62" cy="81.5" r="81.5"/><path class="cls-2" d="M102.39,57.34q-1-.35-2.08-.65.18-.72.32-1.42c1.57-7.62.54-13.77-3-15.79s-8.86.08-14.42,4.92q-.8.7-1.61,1.47-.54-.51-1.07-1c-5.82-5.17-11.66-7.35-15.16-5.32s-4.35,7.72-2.94,14.95q.2,1,.48,2.14c-.83.23-1.62.48-2.39.75-6.82,2.38-11.18,6.11-11.18,10s4.68,8,11.79,10.43q.84.29,1.74.55-.29,1.18-.51,2.3c-1.35,7.1-.3,12.74,3.06,14.67s9.27-.06,14.93-5q.67-.59,1.35-1.24.87.84,1.74,1.59c5.48,4.71,10.89,6.62,14.24,4.68s4.58-8.06,3.12-15.43q-.17-.84-.39-1.72l1.2-.37c7.39-2.45,12.2-6.41,12.2-10.45C113.85,63.49,109.35,59.74,102.39,57.34ZM85.07,46.47c4.76-4.14,9.21-5.78,11.23-4.61s3,6.27,1.64,12.85q-.13.63-.29,1.28A66,66,0,0,0,89,54.64a64.69,64.69,0,0,0-5.45-6.8Q84.33,47.12,85.07,46.47Zm-15.18,21c.83-1.73,1.75-3.47,2.74-5.2h0c1-1.73,2-3.39,3.13-5,1.92-.14,3.88-.22,5.87-.22h0c2,0,4,.08,5.88.22,1.07,1.57,2.11,3.23,3.11,5s1.94,3.48,2.78,5.17c-.84,1.73-1.76,3.47-2.77,5.22s-2,3.42-3.09,5c-1.91.14-3.89.21-5.9.21s-4-.06-5.84-.18c-1.09-1.6-2.15-3.27-3.15-5h0C71.64,70.91,70.72,69.17,69.89,67.44Zm-1.46,3.24q.87,1.67,1.83,3.34h0q1,1.69,2,3.31a58.61,58.61,0,0,1-5.94-1C66.91,74.53,67.61,72.62,68.43,70.68Zm0-6.48c-.8-1.9-1.49-3.77-2-5.58,1.84-.41,3.8-.75,5.84-1q-1,1.58-2,3.25h0Q69.29,62.52,68.42,64.2ZM93,74q1-1.71,1.87-3.42A58.42,58.42,0,0,1,97,76.25a58.51,58.51,0,0,1-6,1Q92,75.68,93,74Zm1.84-9.79Q94,62.54,93,60.85t-2-3.22c2.06.26,4,.61,5.88,1A58.82,58.82,0,0,1,94.85,64.2ZM81.65,49.8a58.87,58.87,0,0,1,3.79,4.58q-1.89-.09-3.82-.09t-3.79.09C79.08,52.73,80.36,51.2,81.65,49.8ZM66.8,41.95c2.16-1.25,6.93.53,12,5q.48.43,1,.89a66,66,0,0,0-5.49,6.8A67.3,67.3,0,0,0,65.63,56q-.25-1-.44-2C64,47.79,64.78,43.12,66.8,41.95ZM63.66,75.7q-.82-.24-1.59-.5a23.32,23.32,0,0,1-7.52-4c-1.6-1.37-2.41-2.73-2.41-3.83,0-2.35,3.5-5.34,9.34-7.38.71-.25,1.45-.48,2.22-.7a66,66,0,0,0,3.14,8.14A67.09,67.09,0,0,0,63.66,75.7ZM78.58,88.25a23.32,23.32,0,0,1-7.22,4.52c-2,.7-3.57.72-4.52.17-2-1.17-2.88-5.7-1.73-11.77q.2-1,.47-2.14a64.76,64.76,0,0,0,8.69,1.26,67,67,0,0,0,5.53,6.84Q79.2,87.71,78.58,88.25Zm3.15-3.11c-1.31-1.41-2.61-3-3.88-4.64q1.85.07,3.77.07t3.89-.09A58.58,58.58,0,0,1,81.73,85.14ZM98.45,89c-.38,2.07-1.16,3.45-2.11,4-2,1.18-6.38-.35-11.06-4.38q-.81-.69-1.62-1.48a64.69,64.69,0,0,0,5.4-6.86,64.28,64.28,0,0,0,8.73-1.35q.2.8.35,1.56A23.32,23.32,0,0,1,98.45,89Zm2.34-13.75-1.08.34a64.59,64.59,0,0,0-3.26-8.17,64.58,64.58,0,0,0,3.14-8q1,.29,1.92.6c6,2.05,9.6,5.09,9.6,7.43C111.1,69.87,107.17,73.1,100.79,75.21Z"/><polygon class="cls-2" points="81.44 59.44 78.38 62.39 81.44 68.65 84.5 62.39 81.44 59.44"/><path class="cls-2" d="M81.44,70l-3.8-7.77,3.8-3.67,3.8,3.67Zm-2.32-7.51,2.32,4.74,2.32-4.74-2.32-2.24Z"/><polygon class="cls-2" points="88.91 65.87 86.4 64.43 81.44 68.65 76.48 64.43 73.97 65.87 75.39 69.13 81.1 69.13 76.68 71.11 76.68 73.68 79.34 73.56 81.44 69.13 83.54 73.56 86.2 73.68 86.2 71.11 81.78 69.13 87.5 69.13 88.91 65.87"/><path class="cls-2" d="M86.8,74.32l-3.66-.17-1.71-3.61-1.71,3.61-3.66.17V70.71l2.18-1H75l-1.8-4.12,3.36-1.92,4.84,4.12,0-.1,0,.1,4.84-4.12,3.36,1.92-1.8,4.12H84.62l2.18,1ZM83.93,73l1.66.07V71.5l-3-1.34ZM77.29,71.5V73L78.95,73l1.33-2.81Zm6.65-3H87.1l1-2.39-1.67-1-3.94,3.35Zm-8.16,0h4.57l-3.94-3.35-1.67,1Z"/><rect class="cls-2" x="81.04" y="69.13" width="0.8" height="7.07"/><path class="cls-3" d="M25.8,114.21v6.91H23V103.81h4.89a8,8,0,0,1,5,1.26,4.5,4.5,0,0,1,1.61,3.79q0,3.23-3.37,4.6L36,121.13H32.73l-4.14-6.92Zm0-2.34h2a4.48,4.48,0,0,0,2.87-.73,2.66,2.66,0,0,0,.89-2.18,2.35,2.35,0,0,0-1-2.11,5.26,5.26,0,0,0-2.89-.64H25.8Z"/><path class="cls-3" d="M43.88,121.37a6.33,6.33,0,0,1-4.78-1.78,6.77,6.77,0,0,1-1.72-4.91,7.43,7.43,0,0,1,1.6-5,5.52,5.52,0,0,1,4.39-1.83,5.39,5.39,0,0,1,4.1,1.58,6,6,0,0,1,1.5,4.33v1.5H40.25a4.3,4.3,0,0,0,1,2.93,3.59,3.59,0,0,0,2.73,1,10.07,10.07,0,0,0,2.16-.22,11.33,11.33,0,0,0,2.15-.73v2.26a8.54,8.54,0,0,1-2.06.69A12.62,12.62,0,0,1,43.88,121.37Zm-.5-11.46a2.79,2.79,0,0,0-2.12.84,4,4,0,0,0-1,2.45h5.94a3.63,3.63,0,0,0-.78-2.46A2.67,2.67,0,0,0,43.38,109.91Z"/><path class="cls-3" d="M60.33,121.14l-.55-1.82h-.1a5.35,5.35,0,0,1-1.91,1.63,6,6,0,0,1-2.46.43,4.16,4.16,0,0,1-3-1,3.9,3.9,0,0,1-1.08-2.95,3.46,3.46,0,0,1,1.51-3.05,8.67,8.67,0,0,1,4.58-1.12l2.26-.07v-.7a2.65,2.65,0,0,0-.58-1.88,2.39,2.39,0,0,0-1.82-.62,6.29,6.29,0,0,0-1.93.29,14.83,14.83,0,0,0-1.78.7l-.9-2a9.7,9.7,0,0,1,2.33-.85,10.73,10.73,0,0,1,2.39-.29,5.66,5.66,0,0,1,3.77,1.09,4.26,4.26,0,0,1,1.27,3.42v8.82Zm-4.14-1.9a3.44,3.44,0,0,0,2.43-.84,3.07,3.07,0,0,0,.92-2.37v-1.14l-1.68.07a5.75,5.75,0,0,0-2.86.65,2,2,0,0,0-.9,1.79,1.75,1.75,0,0,0,.52,1.36A2.24,2.24,0,0,0,56.18,119.25Z"/><path class="cls-3" d="M71.48,121.39A5.73,5.73,0,0,1,67,119.65,8.79,8.79,0,0,1,67,109.59a6,6,0,0,1,4.67-1.77,8.75,8.75,0,0,1,3.73.77l-.84,2.24a8.43,8.43,0,0,0-2.91-.69q-3.4,0-3.4,4.51a5.4,5.4,0,0,0,.85,3.31,2.93,2.93,0,0,0,2.48,1.11,7.11,7.11,0,0,0,3.52-.92v2.43a5.5,5.5,0,0,1-1.59.63A9.56,9.56,0,0,1,71.48,121.39Z"/><path class="cls-3" d="M83.08,119.15a6.76,6.76,0,0,0,2-.32v2.1a5.63,5.63,0,0,1-1.19.34,8.18,8.18,0,0,1-1.51.14q-4,0-4-4.17v-7.06H76.68v-1.23l1.92-1,.95-2.77h1.72v2.91H85v2.11H81.26v7a2,2,0,0,0,.5,1.49A1.83,1.83,0,0,0,83.08,119.15Z"/><path class="cls-3" d="M107.54,121.17h-3.28l-5.43-7.84-1.67,1.36v6.48H94.33V103.86h2.83v8.26q1.16-1.42,2.31-2.73l4.68-5.53h3.22q-4.54,5.33-6.5,7.58Z"/><path class="cls-3" d="M107.55,108.08h3l2.66,7.42a14.08,14.08,0,0,1,.8,3h.09a12.53,12.53,0,0,1,.39-1.58q.28-.93,3-8.82h3l-5.61,14.83q-1.53,4.08-5.09,4.08a8,8,0,0,1-1.8-.2v-2.2a6.6,6.6,0,0,0,1.43.14q2,0,2.83-2.33l.49-1.23Z"/><path class="cls-3" d="M122.37,104.62a1.54,1.54,0,0,1,.41-1.15,1.59,1.59,0,0,1,1.17-.4,1.41,1.41,0,0,1,1.55,1.55,1.51,1.51,0,0,1-.41,1.12,1.55,1.55,0,0,1-1.14.41,1.58,1.58,0,0,1-1.16-.41A1.51,1.51,0,0,1,122.37,104.62Zm2.94,16.56h-2.78V108.09h2.78Z"/><path class="cls-3" d="M132.27,121.19l-5-13.1h2.94l2.66,7.61a15,15,0,0,1,.83,3.1h.1a20.82,20.82,0,0,1,.83-3.1l2.67-7.61h3l-5,13.09Z"/></svg>